<mxfile host="app.diagrams.net" agent="Mozilla/5.0 (Macintosh; Intel Mac OS X 10_15_7) AppleWebKit/537.36 (KHTML, like Gecko) Chrome/129.0.0.0 Safari/537.36" version="24.7.17">
  <diagram name="Page-1" id="pPMbkzpgSLtbPCeR25Ku">
    <mxGraphModel dx="1356" dy="945" grid="0" gridSize="10" guides="1" tooltips="1" connect="1" arrows="1" fold="1" page="1" pageScale="1" pageWidth="1169" pageHeight="827" background="none" math="0" shadow="0">
      <root>
        <mxCell id="0" />
        <mxCell id="1" parent="0" />
        <mxCell id="apwUW1H52_Lenmefa1Gc-10" value="" style="verticalLabelPosition=bottom;html=1;verticalAlign=top;align=center;shape=mxgraph.floorplan.room;wallThickness=5;" vertex="1" parent="1">
          <mxGeometry x="630" y="256" width="115" height="190" as="geometry" />
        </mxCell>
        <mxCell id="-AyQobPHOPctwBnEzQVu-17" value="" style="verticalLabelPosition=bottom;html=1;verticalAlign=top;align=center;shape=mxgraph.floorplan.doorDouble;aspect=fixed;strokeColor=default;fontFamily=Helvetica;fontSize=12;fontColor=default;fillColor=default;" parent="1" vertex="1">
          <mxGeometry x="223.00000000000003" y="790" width="54.59" height="29" as="geometry" />
        </mxCell>
        <mxCell id="apwUW1H52_Lenmefa1Gc-1" value="" style="verticalLabelPosition=bottom;html=1;verticalAlign=top;align=center;shape=mxgraph.floorplan.doorDouble;aspect=fixed;rotation=-90;" vertex="1" parent="1">
          <mxGeometry x="1056" y="395" width="69.65" height="37" as="geometry" />
        </mxCell>
        <mxCell id="-AyQobPHOPctwBnEzQVu-7" value="" style="verticalLabelPosition=bottom;html=1;verticalAlign=top;align=center;shape=mxgraph.floorplan.wall;fontFamily=Helvetica;fontSize=12;fillColor=default;wallThickness=5;" parent="1" vertex="1">
          <mxGeometry x="936" y="381" width="134" height="1" as="geometry" />
        </mxCell>
        <mxCell id="_IVkNDHX0kQ2XHPlicY4-4" value="" style="verticalLabelPosition=bottom;html=1;verticalAlign=top;align=center;shape=mxgraph.floorplan.wallCorner;direction=north" parent="1" vertex="1">
          <mxGeometry x="80" y="695" width="112" height="100" as="geometry" />
        </mxCell>
        <mxCell id="_IVkNDHX0kQ2XHPlicY4-5" value="" style="verticalLabelPosition=bottom;html=1;verticalAlign=top;align=center;shape=mxgraph.floorplan.wallCorner;" parent="1" vertex="1">
          <mxGeometry x="80" y="32" width="100" height="100" as="geometry" />
        </mxCell>
        <mxCell id="_IVkNDHX0kQ2XHPlicY4-6" value="" style="verticalLabelPosition=bottom;html=1;verticalAlign=top;align=center;shape=mxgraph.floorplan.wallCorner;direction=south;" parent="1" vertex="1">
          <mxGeometry x="980" y="32" width="100" height="100" as="geometry" />
        </mxCell>
        <mxCell id="_IVkNDHX0kQ2XHPlicY4-7" value="" style="verticalLabelPosition=bottom;html=1;verticalAlign=top;align=center;shape=mxgraph.floorplan.wallCorner;direction=west" parent="1" vertex="1">
          <mxGeometry x="980" y="695" width="100" height="100" as="geometry" />
        </mxCell>
        <mxCell id="_IVkNDHX0kQ2XHPlicY4-8" value="" style="verticalLabelPosition=bottom;html=1;verticalAlign=top;align=center;shape=mxgraph.floorplan.wall;direction=south;" parent="1" vertex="1">
          <mxGeometry x="1070" y="132" width="10" height="565" as="geometry" />
        </mxCell>
        <mxCell id="_IVkNDHX0kQ2XHPlicY4-10" value="" style="verticalLabelPosition=bottom;html=1;verticalAlign=top;align=center;shape=mxgraph.floorplan.wall;direction=south;" parent="1" vertex="1">
          <mxGeometry x="80" y="132" width="10" height="563" as="geometry" />
        </mxCell>
        <mxCell id="_IVkNDHX0kQ2XHPlicY4-12" value="" style="verticalLabelPosition=bottom;html=1;verticalAlign=top;align=center;shape=mxgraph.floorplan.wall;" parent="1" vertex="1">
          <mxGeometry x="179" y="32" width="801" height="10" as="geometry" />
        </mxCell>
        <mxCell id="-AyQobPHOPctwBnEzQVu-6" value="" style="verticalLabelPosition=bottom;html=1;verticalAlign=top;align=center;shape=mxgraph.floorplan.wall;direction=south;fontFamily=Helvetica;fontSize=12;wallThickness=5;" parent="1" vertex="1">
          <mxGeometry x="737" y="42" width="10" height="575" as="geometry" />
        </mxCell>
        <mxCell id="-AyQobPHOPctwBnEzQVu-9" value="Repro" style="text;html=1;align=center;verticalAlign=middle;resizable=0;points=[];autosize=1;strokeColor=none;fillColor=none;fontFamily=Helvetica;fontSize=12;fontColor=default;" parent="1" vertex="1">
          <mxGeometry x="349" y="434" width="51" height="26" as="geometry" />
        </mxCell>
        <mxCell id="-AyQobPHOPctwBnEzQVu-22" value="" style="verticalLabelPosition=bottom;html=1;verticalAlign=top;align=center;shape=mxgraph.floorplan.wall;fontFamily=Helvetica;fontSize=12;" parent="1" vertex="1">
          <mxGeometry x="192" y="785" width="788" height="10" as="geometry" />
        </mxCell>
        <mxCell id="-AyQobPHOPctwBnEzQVu-44" value="Bureau 08&lt;div style=&quot;font-size: 14px;&quot;&gt;&lt;br style=&quot;font-size: 14px;&quot;&gt;&lt;/div&gt;&lt;div style=&quot;font-size: 14px;&quot;&gt;MP63&lt;/div&gt;" style="text;html=1;align=center;verticalAlign=middle;resizable=0;points=[];autosize=1;strokeColor=none;fillColor=none;fontFamily=Helvetica;fontSize=14;fontColor=default;fontStyle=1" parent="1" vertex="1">
          <mxGeometry x="266" y="298.5" width="83" height="62" as="geometry" />
        </mxCell>
        <mxCell id="-AyQobPHOPctwBnEzQVu-45" value="MEPH - BATIMENT CHIMIE" style="text;html=1;align=center;verticalAlign=middle;resizable=0;points=[];autosize=1;fontFamily=Helvetica;fontSize=30;fillColor=#eeeeee;strokeColor=#36393d;dashed=1;" parent="1" vertex="1">
          <mxGeometry x="353" y="880" width="394" height="48" as="geometry" />
        </mxCell>
        <mxCell id="apwUW1H52_Lenmefa1Gc-2" value="" style="verticalLabelPosition=bottom;html=1;verticalAlign=top;align=center;shape=mxgraph.floorplan.wall;fontFamily=Helvetica;fontSize=12;fillColor=default;wallThickness=5;" vertex="1" parent="1">
          <mxGeometry x="936" y="444.5" width="134" height="1" as="geometry" />
        </mxCell>
        <mxCell id="apwUW1H52_Lenmefa1Gc-3" value="" style="verticalLabelPosition=bottom;html=1;verticalAlign=top;align=center;shape=mxgraph.floorplan.wall;direction=south;fontFamily=Helvetica;fontSize=12;wallThickness=5;" vertex="1" parent="1">
          <mxGeometry x="933" y="42" width="10" height="743" as="geometry" />
        </mxCell>
        <mxCell id="apwUW1H52_Lenmefa1Gc-5" value="Studio&lt;div&gt;Audiovisuel&lt;/div&gt;" style="text;html=1;align=center;verticalAlign=middle;resizable=0;points=[];autosize=1;strokeColor=none;fillColor=none;fontFamily=Helvetica;fontSize=14;fontColor=default;fontStyle=1" vertex="1" parent="1">
          <mxGeometry x="958.5" y="574" width="90" height="46" as="geometry" />
        </mxCell>
        <mxCell id="apwUW1H52_Lenmefa1Gc-6" value="Info&lt;div&gt;PC3&lt;/div&gt;" style="text;html=1;align=center;verticalAlign=middle;resizable=0;points=[];autosize=1;strokeColor=none;fillColor=none;fontFamily=Helvetica;fontSize=14;fontColor=default;fontStyle=1" vertex="1" parent="1">
          <mxGeometry x="980.5" y="189" width="45" height="46" as="geometry" />
        </mxCell>
        <mxCell id="apwUW1H52_Lenmefa1Gc-7" value="" style="verticalLabelPosition=bottom;html=1;verticalAlign=top;align=center;shape=mxgraph.floorplan.wall;fontFamily=Helvetica;fontSize=12;fillColor=default;wallThickness=5;" vertex="1" parent="1">
          <mxGeometry x="745" y="258" width="191" height="1" as="geometry" />
        </mxCell>
        <mxCell id="apwUW1H52_Lenmefa1Gc-8" value="&lt;div&gt;TP2&lt;/div&gt;&lt;div&gt;&lt;br&gt;&lt;/div&gt;Info&amp;nbsp;&lt;span style=&quot;background-color: initial;&quot;&gt;Chimie&lt;/span&gt;" style="text;html=1;align=center;verticalAlign=middle;resizable=0;points=[];autosize=1;strokeColor=none;fillColor=none;fontFamily=Helvetica;fontSize=14;fontColor=default;fontStyle=1" vertex="1" parent="1">
          <mxGeometry x="796" y="119" width="89" height="62" as="geometry" />
        </mxCell>
        <mxCell id="apwUW1H52_Lenmefa1Gc-9" value="TP1&lt;div&gt;&lt;br&gt;&lt;/div&gt;&lt;div&gt;Salle C&lt;/div&gt;" style="text;html=1;align=center;verticalAlign=middle;resizable=0;points=[];autosize=1;strokeColor=none;fillColor=none;fontFamily=Helvetica;fontSize=14;fontColor=default;fontStyle=1" vertex="1" parent="1">
          <mxGeometry x="809.5" y="370" width="63" height="62" as="geometry" />
        </mxCell>
        <mxCell id="apwUW1H52_Lenmefa1Gc-11" value="Local&lt;div&gt;Technique&lt;/div&gt;" style="text;html=1;align=center;verticalAlign=middle;resizable=0;points=[];autosize=1;strokeColor=none;fillColor=none;fontFamily=Helvetica;fontSize=14;fontColor=default;fontStyle=1" vertex="1" parent="1">
          <mxGeometry x="647" y="314" width="82" height="46" as="geometry" />
        </mxCell>
      </root>
    </mxGraphModel>
  </diagram>
</mxfile>
